<svg width="57" height="72" viewBox="0 0 57 72" fill="none" xmlns="http://www.w3.org/2000/svg">
<path fill-rule="evenodd" clip-rule="evenodd" d="M11.7597 29.5513C11.4196 29.906 11.2511 30.3445 11.3037 30.8757C11.9036 36.935 13.2501 44.9307 16.1183 51.2488C19.018 57.6362 22.6305 60.7083 27.2765 60.7083C31.9798 60.7083 35.8216 57.5736 39.0475 51.229C42.2295 44.9708 43.9806 37.0415 44.8938 30.9558C44.9761 30.4068 44.8183 29.955 44.4816 29.5866C44.1233 29.1945 43.5368 28.8862 42.7835 28.8862H13.4208C12.6947 28.8862 12.1199 29.1757 11.7597 29.5513ZM0.0668913 31.9882C-0.739807 23.8404 5.86978 17.5945 13.4208 17.5945H42.7835C50.5802 17.5945 57.3182 24.2494 56.0605 32.6314C55.0874 39.1164 53.1191 48.4674 49.1129 56.3468C45.1505 64.1398 38.3353 72.0001 27.2765 72.0001C16.0084 72.0001 9.4443 63.8638 5.83645 55.9164C2.19709 47.8996 0.705094 38.4342 0.0668913 31.9882Z" fill="#FD3E81"/>
<path fill-rule="evenodd" clip-rule="evenodd" d="M24.238 11.8658C22.9482 11.2209 21.4551 11.1147 20.0871 11.5708L18.2831 12.1721C15.325 13.1581 12.1276 11.5594 11.1416 8.60132C10.1556 5.64321 11.7542 2.44585 14.7124 1.45981L16.5163 0.858486C20.7254 -0.544546 25.3195 -0.218057 29.2878 1.76613C30.5776 2.41102 32.0708 2.51714 33.4388 2.06113L35.2428 1.45981C38.2009 0.473771 41.3982 2.07245 42.3843 5.03056C43.3703 7.98868 41.7716 11.186 38.8135 12.1721L37.0096 12.7734C32.8005 14.1764 28.2064 13.8499 24.238 11.8658Z" fill="#47C693"/>
</svg>
